<svg width="281" height="223" viewBox="0 0 281 223" fill="none" xmlns="http://www.w3.org/2000/svg">
<g clip-path="url(#clip0_2_132)">
<path d="M187.587 48.8461C187.546 48.8531 187.485 48.8635 187.41 48.8758C185.953 49.1169 177.144 50.4751 168.262 47.0941C164.5 45.6617 165.783 45.3047 157.404 40.325C147.579 34.4868 145.058 34.5276 144.327 31.8054C142.866 26.3695 150.666 17.8242 155.829 18.3868C157.189 18.535 158.644 19.3449 160.909 18.7957C161.406 18.6751 163.584 18.1469 164.645 16.3455C165.592 14.7385 164.79 13.5793 165.171 12.2613C166.171 8.80189 174.504 7.07543 181.811 8.29526C186.013 8.99687 189.281 10.9123 195.647 14.7145C206.726 21.3324 212.266 24.6413 213.511 29.7109C214.691 34.516 211.858 36.5865 213.918 41.7302C215.836 46.5196 218.883 46.1997 219.931 50.0742C221.618 56.3089 215.357 63.1515 212.749 66.002C209.889 69.1271 207.154 70.8423 203.523 73.1194C198.966 75.9775 196.688 77.4065 193.948 77.2611C188.981 76.9975 174.222 77.8948 174.03 73.7873C173.958 72.2479 156.058 73.5083 164.872 56.9352C165.953 54.9024 187.132 57.0737 187.411 55.906" fill="#2F2E41"/>
<path d="M196.159 59.4514L211.383 82.1447L167.683 90.9763L170.467 62.5652L196.159 59.4514Z" fill="#FFB6B6"/>
<path opacity="0.1" d="M196.159 59.4514L211.383 82.1447L167.683 90.9763L170.467 62.5652L196.159 59.4514Z" fill="black"/>
<path d="M164.41 76.257L211.542 74.2944L232.49 85.7428L231.508 159.34L253.437 200.881L142.808 179.947L151.318 148.545L147.39 82.4718L164.41 76.257Z" fill="#6C63FF"/>
<path d="M1.76931 219.232C0.264594 216.862 0.0868896 213.933 1.29405 211.398L19.2327 173.731C20.5715 170.919 23.4495 169.103 26.5648 169.103H253.143C256.172 169.103 258.927 170.768 260.334 173.448L279.562 210.077C280.891 212.609 280.803 215.583 279.328 218.033C277.852 220.482 275.264 221.951 272.403 221.962L8.65813 223H8.62511C5.82917 223 3.26794 221.593 1.76932 219.232H1.76931Z" fill="white"/>
<path d="M1.76931 219.232C0.264594 216.862 0.0868896 213.933 1.29405 211.398L19.2327 173.731C20.5715 170.919 23.4495 169.103 26.5648 169.103H253.143C256.172 169.103 258.927 170.768 260.334 173.448L279.562 210.077C280.891 212.609 280.803 215.583 279.328 218.033C277.852 220.482 275.264 221.951 272.403 221.962L8.65813 223H8.62511C5.82917 223 3.26794 221.593 1.76932 219.232H1.76931ZM26.5648 169.955C23.7765 169.955 21.2006 171.581 20.0023 174.097L2.06368 211.764C0.983176 214.033 1.14215 216.654 2.48901 218.776C3.83045 220.889 6.12256 222.148 8.62525 222.148H8.6548L272.4 221.111C274.96 221.101 277.277 219.786 278.598 217.593C279.918 215.401 279.997 212.739 278.807 210.473L259.579 173.844C258.32 171.445 255.854 169.955 253.143 169.955H26.5648H26.5648Z" fill="#3F3D56"/>
<path d="M232.048 208.6L138.546 202.176C137.165 202.081 136.064 201.151 135.741 199.806C135.417 198.462 135.975 197.133 137.162 196.422L157.838 184.024C158.363 183.709 158.965 183.556 159.575 183.585L240.455 187.259C241.524 187.308 242.479 187.891 243.009 188.82C243.54 189.749 243.557 190.868 243.055 191.813L235.002 206.961C234.462 207.978 233.402 208.608 232.261 208.608C232.191 208.608 232.12 208.605 232.048 208.6V208.6Z" fill="#3F3D56"/>
<path d="M137.735 198.428L230.853 204.806L238.218 188.942L158.373 185.812L137.735 198.428Z" fill="white"/>
<path d="M183.558 67.0957C199.012 67.0957 211.54 54.5757 211.54 39.1315C211.54 23.6874 199.012 11.1674 183.558 11.1674C168.104 11.1674 155.576 23.6874 155.576 39.1315C155.576 54.5757 168.104 67.0957 183.558 67.0957Z" fill="#FFB6B6"/>
<path d="M192.57 40.9412C192.529 40.9482 192.468 40.9586 192.394 40.9709C190.937 41.2119 182.127 42.5702 173.246 39.1891C169.483 37.7568 170.767 37.3998 162.387 32.4201C152.563 26.5819 150.042 26.6227 149.31 23.9004C147.849 18.4646 155.65 9.91925 160.813 10.4819C162.172 10.63 163.628 11.4399 165.892 10.8907C166.389 10.7701 168.567 10.2419 169.629 8.44054C170.576 6.83355 169.774 5.67433 170.155 4.35637C171.154 0.896917 179.488 -0.829536 186.794 0.390296C190.996 1.0919 194.265 3.00732 200.63 6.80953C211.71 13.4274 217.249 16.7363 218.494 21.806C219.674 26.6111 216.842 28.6815 218.902 33.8252C220.82 38.6147 223.866 38.2948 224.915 42.1692C226.602 48.4039 220.34 55.2466 217.732 58.097C214.872 61.2222 212.138 62.9374 208.507 65.2144C203.95 68.0725 201.671 69.5015 198.932 69.3561C193.965 69.0925 189.025 64.5943 188.832 60.4867C188.76 58.9473 189.403 58.4856 190.993 53.1936C191.656 50.9889 192.115 49.1688 192.395 48.001" fill="#2F2E41"/>
<path d="M211.749 190.766C213.55 190.837 214.92 192.449 215.019 194.196C215.122 196.008 213.861 197.678 212.346 198.541C210.571 199.552 208.355 199.715 206.357 199.541C204.559 199.384 202.603 198.825 201.446 197.342C200.473 196.094 200.115 194.208 200.943 192.791C201.764 191.386 203.509 190.998 204.969 191.562C206.514 192.158 207.486 193.563 207.496 195.222C207.506 197.062 206.443 198.762 204.951 199.779C203.342 200.876 201.317 201.229 199.402 201.225C197.315 201.22 195.237 200.782 193.317 199.969C191.518 199.208 189.721 198.11 188.435 196.617C187.229 195.218 186.508 193.277 187.177 191.463C187.726 189.975 189.113 189.063 190.701 189.189C192.155 189.304 193.626 190.147 194.271 191.49C195 193.005 194.672 194.823 193.746 196.177C192.676 197.741 190.984 198.62 189.106 198.747C187.107 198.882 185.127 198.172 183.483 197.075C181.96 196.058 180.622 194.758 178.987 193.912C178.201 193.505 177.344 193.247 176.454 193.248C175.319 193.249 174.229 193.622 173.126 193.838C172.191 194.021 171.228 194.127 170.305 193.829C169.515 193.573 168.777 193.105 168.279 192.433C167.809 191.798 167.644 191.002 167.91 190.248C168.119 189.657 169.068 189.911 168.857 190.509C168.37 191.888 170.041 192.902 171.212 193.028C172.099 193.124 173.015 192.868 173.872 192.668C174.764 192.459 175.677 192.245 176.6 192.268C179.869 192.349 182.03 195.142 184.667 196.657C187.438 198.25 191.497 198.361 193.194 195.195C193.81 194.045 193.938 192.517 193.091 191.443C192.385 190.548 191.132 190.012 189.996 190.186C188.57 190.404 187.859 191.761 187.911 193.111C187.974 194.763 189.127 196.105 190.355 197.095C193.091 199.297 196.718 200.419 200.216 200.222C201.858 200.13 203.602 199.703 204.877 198.61C205.979 197.667 206.731 196.132 206.466 194.662C206.237 193.39 205.17 192.425 203.879 192.297C202.56 192.166 201.529 193.102 201.47 194.42C201.403 195.901 202.284 197.138 203.561 197.813C205.007 198.577 206.759 198.672 208.362 198.589C210.063 198.5 211.836 198.052 213.026 196.758C214.042 195.653 214.427 194.015 213.491 192.737C213.078 192.173 212.457 191.775 211.749 191.748C211.12 191.723 211.116 190.741 211.749 190.766V190.766Z" fill="#6C63FF"/>
<path d="M166.998 189.715L167.498 186.621L195.278 133.56C195.738 132.681 196.828 132.34 197.707 132.8C198.587 133.26 198.928 134.349 198.468 135.228L170.701 188.266L168.431 190.464C168.162 190.723 167.775 190.779 167.444 190.606C167.113 190.433 166.938 190.083 166.998 189.715H166.998Z" fill="#3F3D56"/>
<path d="M185.933 155.956C189.067 156.546 192.015 157.877 194.528 159.838L194.67 159.869L194.698 159.728L224.975 164.467L222.781 124.223L245.727 111.663L240.304 179.69C239.129 184.035 234.617 186.572 230.292 185.321L191.751 174.242L191.848 173.768L191.713 173.732C188.633 174.562 185.398 174.643 182.281 173.968C174.459 172.386 168.936 167.07 169.944 162.096C170.952 157.122 178.109 154.373 185.933 155.956V155.956Z" fill="#FFB6B6"/>
<path d="M206.633 92.9389L232.49 85.7428C232.49 85.7428 246.073 95.7192 247.71 106.513C247.904 107.797 248.444 167.597 247.873 169.152C243.644 180.672 220.38 162.283 220.38 162.283L206.633 92.9389Z" fill="#6C63FF"/>
<path d="M94.4767 200.419L91.7961 198.123H91.796C91.3969 197.781 90.9117 197.555 90.3928 197.468L30.6651 187.52C29.3019 187.293 28.2949 186.309 28.0369 184.952C27.7791 183.595 28.3551 182.31 29.5403 181.6L50.8484 168.823C51.5606 168.396 52.3986 168.262 53.2094 168.445L128.939 185.543C130.411 185.875 131.394 187.064 131.442 188.572C131.491 190.08 130.586 191.329 129.138 191.755L97.4739 201.062C97.1735 201.15 96.8671 201.193 96.5633 201.193C95.8075 201.193 95.0679 200.926 94.4767 200.419V200.419Z" fill="#3F3D56"/>
<path d="M65.7132 126.221C68.6738 127.406 71.3074 129.282 73.3936 131.692L73.5265 131.75L73.5818 131.617L102.367 142.124L133.102 92.3919L150.093 102.916L114.457 160.025C112.463 164.06 107.545 165.677 103.544 163.612L67.8788 145.287L68.0651 144.84L67.9399 144.779C64.7572 144.997 61.5685 144.451 58.6405 143.185C51.2734 140.12 46.8842 133.836 48.837 129.151C50.7897 124.466 58.3438 123.154 65.7132 126.221L65.7132 126.221Z" fill="#FFB6B6"/>
<path d="M166.073 101.37L152.479 81.0542C152.479 81.0542 136.302 84.2541 129.638 92.9051C128.805 93.9864 100.192 135.457 100.008 137.267C98.7176 149.935 131.602 155.871 131.602 155.871L166.073 101.37V101.37Z" fill="#6C63FF"/>
<path d="M92.9973 201.03L24.531 191.573C22.2395 191.256 20.3483 189.615 19.7125 187.393L3.98764 132.39C3.45481 130.526 3.85259 128.596 5.07903 127.094C6.30546 125.592 8.11747 124.816 10.0524 124.963L79.0322 130.245C81.5277 130.436 83.6226 132.192 84.2454 134.615L99.4566 193.792C99.942 195.681 99.4566 197.677 98.158 199.132C97.0397 200.385 95.454 201.085 93.801 201.085C93.5345 201.085 93.2658 201.067 92.9973 201.03V201.03Z" fill="#3F3D56"/>
<path d="M77.7361 88.3703C78.1363 88.8102 79.5885 88.362 82.4768 87.4477C84.6723 86.7527 85.0105 86.4998 85.2193 86.3184C85.9535 85.6809 86.1459 85.0106 86.8732 82.0491C88.1784 76.7337 88.2187 76.2058 88.889 75.0779C89.1198 74.6894 89.7028 73.7629 89.5606 73.6481C89.4146 73.5301 88.7836 74.4953 87.6175 74.86C86.481 75.2154 85.9694 74.6461 84.9991 74.7911C83.7449 74.9785 82.9991 76.1692 81.8293 78.0963C80.7935 79.803 80.6631 80.4896 79.2108 83.8806C78.7994 84.8412 78.4681 85.5847 78.2137 86.1723C75.3622 88.8319 72.5342 91.5267 69.7318 94.2448C69.7858 94.1623 69.8366 94.0844 69.8808 94.0167C71.1221 92.112 71.2907 91.0909 71.2728 90.3258C71.2436 89.0862 70.6512 88.1421 69.4676 86.3042C68.3077 84.5033 67.2087 83.315 65.8846 81.897C64.1489 80.0383 63.2811 79.1089 62.9355 79.17C60.4671 79.6066 59.8069 96.4039 62.9127 99.4079C62.4768 99.7192 62.1158 100.045 61.8547 100.366C59.1961 97.4159 54.6417 94.1201 49.5965 93.7143C46.4861 93.4641 44.7694 94.4396 44.2356 94.7746C41.7685 96.3232 40.3016 99.4227 41.0383 100.297C41.7253 101.113 43.7094 99.2588 47.5981 99.3609C50.3115 99.4321 52.431 100.416 53.6893 101C56.3289 102.225 57.2944 103.43 59.2405 104.255C58.3282 105.006 57.6054 105.944 57.1515 106.818C56.9942 106.98 56.8376 107.143 56.6805 107.305C54.6724 106.174 52.4111 105.345 50.0408 105.154C46.9303 104.904 45.2136 105.879 44.6798 106.214C43.0171 107.258 41.8122 109.004 41.4265 110.301C41.1745 110.352 40.9412 110.41 40.7277 110.472C39.9739 108.77 37.7308 106.974 35.6451 106.07C32.0549 104.512 27.3913 104.925 26.8923 106.406C26.8764 106.453 26.8724 106.5 26.8653 106.546C27.2589 103.373 27.7932 100.222 28.4609 97.0936C28.4835 97.1828 28.5119 97.2732 28.5498 97.3682C29.4361 99.5928 31.8309 101.728 35.0954 102.836C37.6575 103.705 38.7307 103.255 39.0032 103.129C39.2636 103.008 40.3884 102.526 40.664 101.566C41.175 99.7878 38.046 94.5311 36.0723 96.2943C29.731 101.959 28.8608 97.3721 28.5696 96.6C29.1087 94.1268 29.7293 91.6678 30.4253 89.2228C30.4373 89.2377 30.4477 89.2524 30.4601 89.2675C31.8456 90.9467 34.5118 92.1297 37.645 92.1819C40.1041 92.2229 40.9076 91.535 41.1086 91.3504C41.3004 91.174 42.1398 90.4441 42.1116 89.5373C42.0593 87.856 39.0665 86.4867 36.672 86.2493C34.4654 86.0305 32.0893 86.7057 30.9106 87.5606C31.4587 85.7297 32.0481 83.9067 32.6769 82.0916C34.2873 82.7489 36.5685 82.6605 38.8094 81.6594C40.6575 80.8339 41.0168 80.0412 41.1023 79.8336C41.1838 79.6352 41.5553 78.7987 41.2182 78.1324C40.5932 76.8969 37.8842 76.9178 36.0158 77.5744C35.2463 77.8449 34.515 78.2609 33.8882 78.7313C35.0025 75.7562 36.2172 72.8024 37.5236 69.8703L36.2143 69.5432C34.5455 73.2888 33.0905 77.0831 31.8401 80.9195C31.6846 79.7944 31.295 78.5957 30.782 77.6219C29.2735 74.7586 26.0514 72.6104 24.9618 73.3074C24.7438 73.4468 24.652 73.6739 24.5691 73.9442C23.9011 76.1194 24.4042 79.1256 26.1633 81.8875C27.5439 84.0553 28.6072 84.3596 28.8842 84.4284C29.1181 84.4865 30.0209 84.7356 30.7631 84.4147C30.2639 86.1239 29.8025 87.8404 29.3817 89.5645C28.8753 88.3081 27.8774 86.9694 26.822 86.0436C24.3884 83.909 20.6106 83.0548 19.8425 84.0952C19.6889 84.3033 19.6845 84.5481 19.7038 84.8302C19.8586 87.1003 21.4044 89.7277 24.0356 91.6781C26.1009 93.2088 27.2027 93.1129 27.486 93.0782C27.6528 93.0577 28.1567 93.0076 28.6425 92.788C28.1915 94.883 27.7973 96.9881 27.4566 99.102C26.7751 96.7372 24.4603 93.787 22.2756 94.7255C18.3988 96.3911 13.8417 93.8327 13.3401 94.9515C13.2096 95.2426 13.3177 95.5427 13.4426 95.8684C14.4469 98.4892 17.2209 101.029 21.0297 102.377C24.0191 103.435 25.2838 102.924 25.6052 102.781C25.8182 102.686 26.5212 102.392 27.0448 101.847C26.6684 104.564 26.3798 107.294 26.1766 110.036C25.3683 108.272 23.0917 106.414 20.9603 105.456C17.2217 103.776 12.332 104.144 11.7889 105.688C11.6803 105.997 11.766 106.295 11.8941 106.629C12.9251 109.319 15.7721 111.926 19.6816 113.31C22.7499 114.396 24.0479 113.871 24.3779 113.724C24.6189 113.616 25.4701 113.261 26.013 112.586C25.9434 113.854 25.8897 115.123 25.8558 116.396C25.8461 116.758 25.8404 117.12 25.8334 117.483C25.7894 117.554 25.7509 117.627 25.7254 117.703C25.6206 118.013 25.6919 118.312 25.8149 118.639C25.8122 118.869 25.8107 119.099 25.8092 119.329C25.1252 118.71 24.3092 117.778 23.3278 116.45C22.4423 115.253 21.6013 116.132 21.0611 117.151C20.2142 116.963 19.4065 117.08 18.7712 117.673C14.511 121.65 9.7328 119.54 9.6652 120.726C9.6457 121.068 9.82909 121.34 10.0603 121.635C11.9204 124.01 15.572 125.742 19.9103 125.925C23.3151 126.068 24.4523 125.143 24.7371 124.895C24.8371 124.807 25.0613 124.619 25.3042 124.353C25.4992 124.509 25.6889 124.65 25.8793 124.779C25.9542 127.056 26.0882 129.33 26.2868 131.599C26.1253 131.614 25.9709 131.64 25.8558 131.652C24.2066 131.82 23.6509 129.596 21.1595 128.784C20.3321 128.514 18.7382 128.22 17.8982 128.784C17.7772 128.865 17.3645 129.171 16.7241 129.436C16.3456 129.593 16.0564 129.665 15.9414 129.697C14.9192 129.976 13.9724 130.743 13.3324 131.261C12.1291 132.235 11.5276 132.723 11.2451 133.608C11.1562 133.886 10.9062 134.67 11.2451 135.433C11.4052 135.793 11.7769 136.33 13.2019 136.867C14.0488 137.186 16.5191 138.117 19.4636 137.128C20.1341 136.902 19.6223 136.983 22.2031 135.694C24.2336 134.679 25.4211 134.194 25.5949 133.217C25.656 132.873 25.5944 132.454 25.8558 132.304C26.0011 132.221 26.1767 132.261 26.352 132.324C26.5229 134.149 26.7362 135.971 26.9948 137.789H24.6714C21.5863 137.789 18.8186 139.505 17.4486 142.268L8.75788 159.79C8.20923 160.895 7.91916 162.133 7.91916 163.367V208.423C7.91916 212.865 11.5355 216.479 15.9807 216.479H36.2661C40.7113 216.479 44.3276 212.865 44.3276 208.423V166.935C44.3276 165.924 44.1401 164.934 43.7703 163.992L35.4876 142.902C34.483 140.345 32.3073 138.535 29.7064 137.975C30.5407 136.987 31.3762 135.999 32.2183 135.015C33.2785 135.526 34.4448 135.946 35.6988 136.24C39.0163 137.02 40.3069 136.325 40.6334 136.134C40.9452 135.952 42.2968 135.211 42.5259 133.974C42.5504 133.842 42.56 133.708 42.5582 133.573C45.9564 136.334 47.729 137.694 49.0242 137.241C50.1376 136.851 50.7733 135.572 51.1373 134.425C51.5174 134.478 51.9205 134.532 52.3502 134.589C57.0043 135.21 59.3496 135.498 60.2468 134.397C61.4884 132.872 60.3099 129.932 59.9851 129.122C59.2791 127.361 58.193 126.289 57.5184 125.637C56.6423 124.791 54.1454 122.378 50.2145 122.057C49.3599 121.987 48.5922 122.04 47.8102 122.204C47.5377 121.955 47.2501 121.711 46.9334 121.479C46.33 121.037 45.7342 120.71 45.0928 120.454C46.0766 119.377 47.0632 118.303 48.0544 117.234C48.2113 117.305 48.3603 117.374 48.4972 117.438C51.7443 118.945 52.4577 120.421 55.5805 121.198C56.9973 121.55 58.6012 121.949 58.9982 121.349C59.7036 120.283 56.7094 115.898 52.0826 112.93C52.3945 112.6 52.7073 112.271 53.02 111.942C53.4431 112.119 53.8159 112.292 54.1335 112.44C57.3807 113.947 58.0941 115.423 61.2169 116.2C62.6335 116.552 64.2375 116.951 64.6346 116.351C65.264 115.4 62.9481 111.805 59.1553 108.934C60.1971 108.603 61.5786 108.237 63.3675 108.284C66.0809 108.355 68.2004 109.339 69.4587 109.923C72.7058 111.43 73.4193 112.906 76.542 113.683C77.9587 114.035 79.5626 114.434 79.9597 113.834C81.0083 112.25 73.8859 103.322 65.3658 102.637C64.7045 102.584 64.11 102.588 63.5726 102.628C63.4984 102.505 63.4178 102.379 63.3328 102.251C66.2155 102.343 71.8453 101.519 76.6371 104.882C78.0188 105.851 80.7029 108.131 85.195 110.005C86.6307 110.604 87.3527 110.898 87.5515 110.652C88.2632 109.772 82.3451 102.528 74.0188 98.9594C70.7176 97.5445 68.678 97.4106 67.2272 97.625C67.4508 97.3702 67.6687 97.1073 67.8785 96.8433C71.1206 93.6655 74.4037 90.5209 77.7162 87.4187C77.5558 87.9142 77.5612 88.178 77.7361 88.3703V88.3703ZM36.1299 127.921C32.4679 126.737 28.0336 127.373 26.8773 128.721C26.7143 127.526 26.5726 126.33 26.4559 125.131C28.1242 126.062 29.865 126.312 33.1673 126.752C34.5737 126.94 35.766 127.096 36.7746 127.194C36.91 127.561 37.0545 127.891 37.2221 128.207C37.2415 128.244 37.2624 128.279 37.2822 128.315L37.253 128.348C36.8769 128.185 36.5002 128.041 36.1299 127.921H36.1299ZM26.4004 111.871C26.5049 111.525 26.507 111.156 26.4273 110.776C26.5412 109.398 26.6835 108.025 26.8518 106.657C26.8474 106.866 26.9139 107.076 27.0045 107.303C28.0226 109.858 30.7734 112.311 34.523 113.583C35.2224 113.821 35.8225 113.97 36.3393 114.062C36.1119 114.458 35.9377 114.843 35.8222 115.2C34.5439 114.174 32.8984 113.428 31.0315 114.22C30.5234 114.435 30.2218 115.223 29.9599 116.166C28.2351 116.195 26.7939 116.555 26.1075 117.164C26.1112 116.91 26.1099 116.657 26.1167 116.402C26.1554 114.954 26.2268 113.51 26.3275 112.07C26.355 112.006 26.3797 111.94 26.4004 111.871H26.4004ZM26.1124 119.322C26.1867 119.474 26.2681 119.626 26.3527 119.777C26.2759 119.72 26.1974 119.659 26.1168 119.594C26.1146 119.503 26.114 119.413 26.1124 119.322ZM29.0572 137.864C28.8563 137.837 28.6537 137.818 28.4491 137.807C27.977 135.464 27.5411 133.124 27.1762 130.778C28.1357 132.3 29.7019 133.694 31.6968 134.75C30.8115 135.785 29.9337 136.824 29.0572 137.864H29.0572ZM44.5131 120.247C43.2643 119.846 41.7989 119.654 39.7707 119.419C39.2568 118.705 38.727 118.179 38.3353 117.801C38.1232 117.596 37.7976 117.189 37.3756 116.713C38.4689 116.363 40.1004 115.738 42.406 115.798C44.5013 115.854 46.2403 116.452 47.5041 116.991C46.503 118.072 45.5069 119.158 44.5131 120.247V120.247ZM51.5907 112.624C50.3636 111.883 49.0327 111.248 47.6317 110.802C47.7678 110.801 47.9011 110.797 48.0423 110.801C49.7798 110.846 51.272 111.266 52.4521 111.716C52.165 112.018 51.8774 112.32 51.5907 112.624V112.624Z" fill="#CCCCCC"/>
</g>
<defs>
<clipPath id="clip0_2_132">
<rect width="280" height="223" fill="white" transform="translate(0.5)"/>
</clipPath>
</defs>
</svg>
